<?xml version="1.0" encoding="UTF-8" ?>
<!DOCTYPE svg PUBLIC "-//W3C//DTD SVG 1.1//EN" "http://www.w3.org/Graphics/SVG/1.1/DTD/svg11.dtd">
<svg width="720pt" height="320pt" viewBox="0 0 720 320" version="1.1" xmlns="http://www.w3.org/2000/svg">
<path fill="#efc75e" opacity="1.00" d=" M 422.71 37.52 C 428.66 34.24 434.78 31.18 441.00 28.45 C 456.29 35.45 471.12 43.50 486.38 50.57 C 482.29 55.84 475.56 57.66 469.70 60.19 C 469.50 60.27 469.11 60.42 468.92 60.49 C 453.58 52.70 438.16 45.09 422.71 37.52 Z" />
<path fill="#f7e3af" opacity="1.00" d=" M 413.37 41.92 C 416.38 40.45 419.41 39.00 422.32 37.34 L 422.71 37.52 C 438.16 45.09 453.58 52.70 468.92 60.49 C 465.95 62.04 463.15 63.87 460.31 65.62 C 444.73 57.59 428.79 50.24 413.37 41.92 Z" />
<path fill="#efc75e" opacity="1.00" d=" M 394.92 51.07 C 401.08 48.03 407.22 44.98 413.37 41.92 C 428.79 50.24 444.73 57.59 460.31 65.62 C 460.36 70.04 460.36 74.46 460.15 78.87 C 459.17 74.72 458.84 70.46 458.85 66.21 C 452.49 68.94 446.66 73.00 439.74 74.24 C 428.28 68.80 417.06 62.88 405.62 57.39 C 401.86 55.63 398.32 53.43 394.92 51.07 Z" />
<path fill="#dbb551" opacity="1.00" d=" M 394.00 81.03 C 394.22 70.93 393.53 60.78 394.38 50.70 L 394.92 51.07 C 398.32 53.43 401.86 55.63 405.62 57.39 C 417.06 62.88 428.28 68.80 439.74 74.24 C 442.32 81.59 440.66 89.41 440.98 97.00 C 441.21 105.24 440.95 113.49 440.85 121.73 C 433.56 118.24 426.35 114.57 419.11 110.98 C 410.86 106.85 402.53 102.84 394.33 98.61 C 393.54 92.82 394.22 86.88 394.00 81.03 M 413.89 98.01 C 414.13 99.96 416.11 100.66 417.60 101.46 C 422.57 103.84 427.45 106.40 432.46 108.70 C 432.70 103.89 433.78 99.01 432.45 94.27 C 426.46 91.21 420.43 88.25 414.44 85.20 C 413.26 89.35 413.54 93.76 413.89 98.01 Z" />
<path fill="#e7bf55" opacity="1.00" d=" M 486.38 50.57 C 488.48 51.55 487.72 54.13 487.90 55.97 C 487.75 70.21 488.07 84.44 487.73 98.67 C 478.07 103.29 468.51 108.14 458.89 112.85 C 452.88 115.81 446.87 118.77 440.85 121.73 C 440.95 113.49 441.21 105.24 440.98 97.00 C 440.66 89.41 442.32 81.59 439.74 74.24 C 446.66 73.00 452.49 68.94 458.85 66.21 C 458.84 70.46 459.17 74.72 460.15 78.87 C 463.66 78.18 466.80 76.46 469.67 74.38 C 469.67 69.65 469.69 64.92 469.70 60.19 C 475.56 57.66 482.29 55.84 486.38 50.57 Z" />
<path fill="#3f51b5" opacity="1.00" d=" M 337.75 53.25 C 350.99 53.24 364.23 53.27 377.48 53.24 C 377.52 120.82 377.48 188.41 377.50 256.00 C 364.25 256.00 351.00 256.00 337.75 256.00 C 337.75 188.42 337.75 120.83 337.75 53.25 Z" />
<path fill="#3f51b5" opacity="1.00" d=" M 500.51 53.25 C 513.75 53.25 527.00 53.25 540.25 53.25 C 540.25 68.82 540.25 84.38 540.25 99.95 C 540.22 109.90 539.23 119.81 538.75 129.74 C 541.76 128.06 542.91 124.56 545.23 122.17 C 559.41 104.65 587.96 102.82 605.23 116.71 C 614.56 124.14 620.29 135.13 623.75 146.36 C 628.37 161.39 629.14 177.34 628.32 192.96 C 627.36 208.94 623.93 225.35 614.87 238.82 C 608.43 248.47 598.22 255.59 586.76 257.75 C 575.51 259.81 563.27 258.60 553.37 252.54 C 548.08 249.41 543.91 244.78 540.15 239.99 C 539.48 240.00 538.15 240.01 537.48 240.02 C 535.28 245.35 533.06 250.67 530.85 256.00 C 520.74 256.00 510.62 256.00 500.50 256.00 C 500.51 188.42 500.50 120.83 500.51 53.25 M 561.45 139.52 C 556.66 139.98 551.87 141.88 548.58 145.49 C 544.01 150.48 542.29 157.31 541.36 163.84 C 539.85 175.14 539.88 186.64 541.00 197.98 C 541.96 206.20 543.79 215.11 549.93 221.13 C 555.15 226.16 563.09 227.38 569.98 225.89 C 575.86 224.62 580.35 219.89 582.71 214.53 C 586.57 205.93 587.54 196.38 587.85 187.06 C 588.04 176.98 587.81 166.74 585.06 156.98 C 583.53 151.81 581.16 146.56 576.80 143.17 C 572.50 139.79 566.76 138.93 561.45 139.52 Z" />
<path fill="#f1d999" opacity="1.00" d=" M 468.92 60.49 C 469.11 60.42 469.50 60.27 469.70 60.19 C 469.69 64.92 469.67 69.65 469.67 74.38 C 466.80 76.46 463.66 78.18 460.15 78.87 C 460.36 74.46 460.36 70.04 460.31 65.62 C 463.15 63.87 465.95 62.04 468.92 60.49 Z" />
<path fill="#3f51b5" opacity="1.00" d=" M 117.68 79.26 C 126.16 79.24 134.64 79.25 143.12 79.25 C 143.13 89.58 143.12 99.92 143.13 110.25 C 154.96 110.25 166.79 110.25 178.62 110.25 C 178.62 120.21 178.62 130.17 178.62 140.12 C 166.79 140.13 154.96 140.12 143.12 140.13 C 143.12 163.43 143.14 186.74 143.11 210.05 C 143.09 213.86 143.59 217.90 145.75 221.14 C 148.22 224.81 152.64 226.77 156.97 226.95 C 164.94 227.40 172.67 224.98 180.12 222.46 C 180.14 232.33 180.11 242.20 180.13 252.07 C 166.83 258.29 151.63 259.82 137.18 257.86 C 128.62 256.72 120.06 253.30 114.28 246.68 C 106.16 237.56 103.53 224.94 103.38 213.04 C 103.37 188.74 103.38 164.43 103.38 140.12 C 97.00 140.12 90.63 140.12 84.25 140.12 C 84.25 134.54 84.25 128.95 84.25 123.37 C 91.58 118.95 98.87 114.49 106.19 110.07 C 110.03 99.80 113.87 89.54 117.68 79.26 Z" />
<path fill="#f2f2f2" opacity="1.00" d=" M 413.89 98.01 C 413.54 93.76 413.26 89.35 414.44 85.20 C 420.43 88.25 426.46 91.21 432.45 94.27 C 433.78 99.01 432.70 103.89 432.46 108.70 C 427.45 106.40 422.57 103.84 417.60 101.46 C 416.11 100.66 414.13 99.96 413.89 98.01 M 416.10 91.05 C 419.71 94.97 425.14 96.25 429.59 98.95 C 429.59 98.42 429.60 97.36 429.60 96.83 C 425.12 94.87 421.09 91.60 416.10 91.05 M 415.84 95.57 C 419.24 99.26 424.21 100.71 428.61 102.82 L 428.28 100.83 C 424.58 98.40 420.47 95.32 415.84 95.57 Z" />
<path fill="#dbb551" opacity="1.00" d=" M 416.10 91.05 C 421.09 91.60 425.12 94.87 429.60 96.83 C 429.60 97.36 429.59 98.42 429.59 98.95 C 425.14 96.25 419.71 94.97 416.10 91.05 Z" />
<path fill="#e1c377" opacity="1.00" d=" M 415.84 95.57 C 420.47 95.32 424.58 98.40 428.28 100.83 L 428.61 102.82 C 424.21 100.71 419.24 99.26 415.84 95.57 Z" />
<path fill="#3f51b5" opacity="1.00" d=" M 234.00 110.02 C 257.86 104.38 283.26 108.62 305.01 119.52 C 301.04 128.92 297.02 138.31 293.01 147.70 C 279.65 141.65 265.25 135.18 250.22 137.51 C 245.04 138.08 240.41 142.56 240.85 147.97 C 240.59 152.58 244.14 156.02 247.78 158.20 C 261.33 166.45 276.93 170.87 290.00 179.95 C 297.69 185.28 303.81 193.24 305.61 202.56 C 308.22 216.21 305.90 231.65 296.15 242.12 C 286.19 253.01 271.08 257.13 256.83 258.30 C 238.18 259.48 218.84 258.06 201.63 250.24 C 201.63 239.28 201.62 228.32 201.63 217.37 C 214.06 223.33 227.40 227.59 241.10 229.25 C 247.96 229.89 255.38 230.03 261.60 226.61 C 266.05 224.27 268.14 218.84 267.14 214.02 C 266.65 209.89 263.06 207.24 259.85 205.11 C 246.07 196.44 229.98 191.95 216.81 182.22 C 209.55 176.88 204.18 168.96 202.48 160.06 C 200.39 149.04 200.77 136.74 207.21 127.15 C 213.19 117.91 223.56 112.55 234.00 110.02 Z" />
<path fill="#3f51b5" opacity="1.00" d=" M 419.11 110.98 C 426.35 114.57 433.56 118.24 440.85 121.73 C 446.87 118.77 452.88 115.81 458.89 112.85 C 458.86 160.56 458.88 208.28 458.87 256.00 C 445.62 256.00 432.37 256.00 419.12 256.00 C 419.12 207.66 419.15 159.32 419.11 110.98 Z" />
</svg>
