<?xml version="1.0" encoding="UTF-8" ?>
<!DOCTYPE svg PUBLIC "-//W3C//DTD SVG 1.1//EN" "http://www.w3.org/Graphics/SVG/1.1/DTD/svg11.dtd">
<svg width="541pt" height="464pt" viewBox="0 0 541 464" version="1.1" xmlns="http://www.w3.org/2000/svg">
<path fill="#ffffff" opacity="1.00" d=" M 259.50 32.38 C 263.46 32.38 267.41 32.38 271.37 32.38 C 271.37 52.58 271.37 72.79 271.37 93.00 C 268.33 93.00 265.29 93.00 262.26 93.00 C 261.46 91.03 260.66 89.07 259.88 87.10 C 258.28 89.03 256.77 91.19 254.47 92.34 C 248.82 95.29 241.08 93.79 237.43 88.40 C 232.90 81.90 232.56 73.47 233.30 65.85 C 234.00 59.15 237.13 51.49 244.10 49.31 C 250.19 47.16 256.95 49.98 260.38 55.28 C 258.97 47.72 259.66 40.01 259.50 32.38 M 250.49 58.56 C 246.93 59.56 245.79 63.61 245.37 66.86 C 244.95 71.59 244.73 76.67 246.83 81.06 C 249.06 85.71 256.82 85.39 258.84 80.72 C 260.39 77.40 260.28 73.61 260.26 70.03 C 260.14 66.94 259.93 63.63 258.17 60.98 C 256.55 58.50 253.20 57.92 250.49 58.56 Z" />
<path fill="#ffffff" opacity="1.00" d=" M 334.00 32.38 C 337.96 32.38 341.91 32.38 345.87 32.38 C 345.87 52.58 345.87 72.79 345.87 93.00 C 341.91 93.00 337.96 93.00 334.00 93.00 C 334.00 72.79 334.00 52.58 334.00 32.38 Z" />
<path fill="#ffffff" opacity="1.00" d=" M 115.25 36.13 C 120.76 36.13 126.27 36.13 131.79 36.13 C 135.94 50.74 140.06 65.36 144.22 79.98 C 148.68 65.37 153.04 50.74 157.45 36.13 C 162.92 36.12 168.40 36.13 173.87 36.13 C 173.87 55.08 173.87 74.04 173.87 93.00 C 170.12 93.00 166.38 93.00 162.63 93.00 C 162.60 77.90 162.51 62.79 163.16 47.70 C 158.49 62.77 154.01 77.91 149.40 93.00 C 145.68 93.00 141.96 93.00 138.25 93.00 C 133.94 77.87 129.90 62.66 125.41 47.59 C 126.40 62.71 126.09 77.86 126.13 93.00 C 122.50 93.00 118.87 93.00 115.25 93.00 C 115.25 74.04 115.25 55.08 115.25 36.13 Z" />
<path fill="#ffffff" opacity="1.00" d=" M 198.40 49.56 C 205.36 47.59 213.69 48.63 218.92 53.98 C 224.30 59.48 225.59 67.71 224.80 75.08 C 224.24 81.46 221.27 88.08 215.46 91.28 C 207.37 95.64 195.88 94.57 189.98 87.07 C 184.86 80.60 184.28 71.64 185.86 63.82 C 187.15 57.30 191.82 51.31 198.40 49.56 M 202.48 58.61 C 198.97 59.72 197.88 63.72 197.51 66.97 C 197.07 71.65 196.99 76.69 199.12 81.00 C 201.28 85.16 208.08 85.45 210.64 81.56 C 212.63 78.44 212.82 74.59 212.89 71.00 C 212.79 67.66 212.61 64.10 210.84 61.15 C 209.17 58.35 205.40 57.67 202.48 58.61 Z" />
<path fill="#ffffff" opacity="1.00" d=" M 359.54 52.39 C 366.13 49.09 373.76 47.67 381.03 49.17 C 384.85 49.99 388.56 52.22 390.34 55.82 C 391.96 58.93 392.06 62.53 392.01 65.96 C 391.98 74.97 392.01 83.99 392.00 93.00 C 389.23 93.00 386.47 93.00 383.71 93.00 C 382.92 90.99 382.14 88.97 381.36 86.96 C 379.11 89.50 376.76 92.35 373.29 93.17 C 368.62 94.31 362.99 94.21 359.29 90.72 C 355.50 86.97 354.90 81.05 355.92 76.06 C 356.70 72.06 359.98 69.04 363.75 67.80 C 369.04 65.88 374.76 66.17 380.30 65.93 C 380.17 63.22 380.76 59.48 377.76 58.09 C 372.96 56.18 367.81 58.40 363.38 60.33 C 362.09 57.69 360.76 55.06 359.54 52.39 M 371.10 74.09 C 367.60 75.60 366.79 80.51 368.63 83.56 C 371.25 86.29 376.24 85.28 378.40 82.43 C 380.54 79.71 380.21 76.07 380.29 72.82 C 377.22 73.07 373.96 72.75 371.10 74.09 Z" />
<path fill="#ffffff" opacity="1.00" d=" M 421.71 49.75 C 424.55 48.34 427.81 48.61 430.87 48.89 C 430.88 52.59 430.85 56.29 430.90 59.98 C 427.39 59.73 423.56 59.35 420.40 61.25 C 417.39 62.99 416.25 66.65 416.26 69.95 C 416.23 77.63 416.26 85.31 416.25 93.00 C 412.25 93.00 408.25 93.00 404.25 93.00 C 404.25 78.50 404.25 64.00 404.25 49.50 C 407.27 49.50 410.29 49.50 413.32 49.50 C 413.93 51.81 414.53 54.11 415.18 56.41 C 417.02 53.91 418.74 51.04 421.71 49.75 Z" />
<path fill="#ffffff" opacity="1.00" d=" M 283.63 49.50 C 287.58 49.50 291.54 49.50 295.50 49.50 C 295.51 57.96 295.48 66.43 295.51 74.89 C 295.62 77.34 295.70 79.97 297.03 82.12 C 299.23 85.40 304.63 84.93 306.99 82.05 C 309.25 79.12 309.36 75.23 309.58 71.68 C 309.69 64.29 309.59 56.90 309.63 49.50 C 313.58 49.50 317.54 49.50 321.50 49.50 C 321.50 64.00 321.50 78.50 321.50 93.00 C 318.46 93.00 315.42 93.00 312.39 93.00 C 311.83 91.05 311.28 89.11 310.75 87.17 C 306.38 93.81 296.99 95.64 290.11 92.04 C 285.54 89.50 283.70 84.03 283.65 79.06 C 283.59 69.21 283.65 59.35 283.63 49.50 Z" />
<path fill="#efc75e" opacity="1.00" d=" M 261.03 142.29 C 264.04 140.62 266.99 138.81 270.13 137.38 C 270.76 137.55 272.03 137.87 272.67 138.03 C 274.11 139.00 275.62 139.88 277.14 140.74 C 278.41 141.42 279.68 142.12 280.95 142.83 C 284.62 144.82 288.28 146.81 291.92 148.86 C 293.29 149.62 294.67 150.36 296.05 151.11 C 297.07 151.66 298.09 152.22 299.11 152.77 C 300.39 153.49 301.67 154.20 302.95 154.93 C 311.37 159.47 319.70 164.17 328.12 168.71 C 331.75 170.77 335.43 172.76 339.10 174.75 C 344.64 177.84 350.23 180.85 355.77 183.96 C 352.66 186.58 349.34 188.98 345.70 190.83 C 338.47 194.56 331.40 198.57 324.28 202.49 C 323.65 212.55 324.34 222.62 323.89 232.68 L 322.89 232.62 C 322.56 222.74 323.17 212.86 322.89 202.98 C 296.99 188.94 271.24 174.63 245.35 160.57 C 242.76 159.14 240.14 157.73 237.87 155.81 L 237.82 155.17 C 238.34 154.81 239.38 154.08 239.90 153.72 C 243.05 152.31 245.97 150.46 249.03 148.88 C 252.03 147.20 255.04 145.53 258.07 143.90 C 259.05 143.36 260.04 142.83 261.03 142.29 Z" />
<path fill="#f7e3af" opacity="1.00" d=" M 232.02 158.18 C 233.70 157.26 235.31 156.06 237.21 155.66 L 237.87 155.81 C 240.14 157.73 242.76 159.14 245.35 160.57 C 271.24 174.63 296.99 188.94 322.89 202.98 C 317.05 206.34 311.15 209.58 305.13 212.60 C 276.84 196.69 248.24 181.30 219.86 165.55 L 219.07 165.15 C 219.78 164.81 221.18 164.11 221.89 163.77 C 225.26 161.89 228.66 160.07 232.02 158.18 Z" />
<path fill="#efc75e" opacity="1.00" d=" M 200.97 175.28 C 206.97 172.10 212.78 168.55 218.87 165.57 L 219.86 165.55 C 248.24 181.30 276.84 196.69 305.13 212.60 L 305.43 212.82 C 293.44 218.90 282.21 226.50 269.70 231.52 C 244.28 217.48 218.82 203.54 193.33 189.63 C 190.42 187.96 187.68 186.01 184.95 184.05 C 190.31 181.17 195.62 178.19 200.97 175.28 Z" />
<path fill="#dbb551" opacity="1.00" d=" M 184.00 198.03 C 184.04 193.20 183.83 188.36 184.24 183.54 L 184.95 184.05 C 187.68 186.01 190.42 187.96 193.33 189.63 C 218.82 203.54 244.28 217.48 269.70 231.52 C 270.02 236.01 270.31 240.51 270.29 245.02 C 270.08 269.01 270.46 293.00 270.07 316.99 C 270.19 319.73 270.12 322.76 271.91 325.03 L 272.03 325.76 C 271.82 327.47 269.42 326.15 268.29 326.24 C 262.05 322.20 255.34 318.91 248.87 315.26 C 247.58 314.53 246.29 313.81 245.01 313.09 C 242.35 311.67 239.72 310.21 237.10 308.73 C 230.42 305.08 223.76 301.40 217.11 297.71 C 214.10 296.06 211.08 294.43 208.09 292.74 C 200.14 288.30 192.05 284.07 184.18 279.49 C 183.75 252.36 184.12 225.18 184.00 198.03 M 220.46 270.05 C 220.51 273.36 220.16 276.73 220.96 279.98 C 221.65 282.44 224.12 283.64 226.14 284.87 C 233.30 288.74 240.47 292.60 247.53 296.64 C 250.00 298.07 252.65 299.17 255.40 299.97 C 255.80 292.66 255.59 285.33 255.67 278.01 C 255.55 275.63 255.89 272.81 253.97 271.01 C 251.21 268.53 247.72 267.10 244.53 265.27 C 236.79 261.20 229.37 256.50 221.40 252.88 C 219.93 258.50 220.58 264.32 220.46 270.05 Z" />
<path fill="#e7bf55" opacity="1.00" d=" M 355.77 183.96 L 356.48 183.39 C 357.10 203.58 356.57 223.80 356.75 244.00 C 356.68 255.89 356.89 267.79 356.64 279.67 C 351.00 282.58 345.50 285.76 339.90 288.75 C 336.65 290.58 333.35 292.33 330.08 294.13 C 327.07 295.81 324.05 297.46 321.01 299.09 C 319.70 299.82 318.39 300.55 317.09 301.29 C 315.38 302.21 313.67 303.13 311.96 304.05 C 310.00 305.12 308.05 306.20 306.11 307.30 C 304.40 308.23 302.68 309.15 300.97 310.07 C 299.66 310.80 298.35 311.52 297.05 312.25 C 294.69 313.55 292.33 314.82 289.96 316.10 C 288.68 316.81 287.39 317.53 286.12 318.25 C 283.74 319.55 281.35 320.83 278.96 322.11 C 276.93 323.19 275.08 324.78 272.77 325.24 L 271.91 325.03 C 270.12 322.76 270.19 319.73 270.07 316.99 C 270.46 293.00 270.08 269.01 270.29 245.02 C 270.31 240.51 270.02 236.01 269.70 231.52 C 282.21 226.50 293.44 218.90 305.43 212.82 C 305.90 221.25 305.44 229.72 305.64 238.16 C 308.18 238.37 310.73 238.57 313.29 238.78 C 314.98 236.64 316.67 234.50 318.37 232.36 C 319.87 232.44 321.38 232.53 322.89 232.62 L 323.89 232.68 C 324.34 222.62 323.65 212.55 324.28 202.49 C 331.40 198.57 338.47 194.56 345.70 190.83 C 349.34 188.98 352.66 186.58 355.77 183.96 Z" />
<path fill="#f1d999" opacity="1.00" d=" M 322.89 202.98 C 323.17 212.86 322.56 222.74 322.89 232.62 C 321.38 232.53 319.87 232.44 318.37 232.36 C 316.67 234.50 314.98 236.64 313.29 238.78 C 310.73 238.57 308.18 238.37 305.64 238.16 C 305.44 229.72 305.90 221.25 305.43 212.82 L 305.13 212.60 C 311.15 209.58 317.05 206.34 322.89 202.98 Z" />
<path fill="#f2f2f2" opacity="1.00" d=" M 220.46 270.05 C 220.58 264.32 219.93 258.50 221.40 252.88 C 229.37 256.50 236.79 261.20 244.53 265.27 C 247.72 267.10 251.21 268.53 253.97 271.01 C 255.89 272.81 255.55 275.63 255.67 278.01 C 255.59 285.33 255.80 292.66 255.40 299.97 C 252.65 299.17 250.00 298.07 247.53 296.64 C 240.47 292.60 233.30 288.74 226.14 284.87 C 224.12 283.64 221.65 282.44 220.96 279.98 C 220.16 276.73 220.51 273.36 220.46 270.05 M 226.28 263.55 C 226.29 264.85 226.32 266.14 226.35 267.44 C 231.85 270.69 237.50 273.69 243.01 276.94 C 245.40 278.35 247.98 279.41 250.66 280.11 C 250.18 278.72 249.70 277.34 249.22 275.96 C 241.52 271.92 234.19 267.18 226.28 263.55 M 225.86 272.56 C 226.35 274.38 226.20 276.81 228.28 277.66 C 234.71 281.24 241.01 285.19 247.87 287.93 C 247.42 285.77 246.90 283.34 244.63 282.41 C 238.43 279.04 232.40 275.28 225.86 272.56 Z" />
<path fill="#dbb551" opacity="1.00" d=" M 226.28 263.55 C 234.19 267.18 241.52 271.92 249.22 275.96 C 249.70 277.34 250.18 278.72 250.66 280.11 C 247.98 279.41 245.40 278.35 243.01 276.94 C 237.50 273.69 231.85 270.69 226.35 267.44 C 226.32 266.14 226.29 264.85 226.28 263.55 Z" />
<path fill="#dbb551" opacity="1.00" d=" M 225.86 272.56 C 232.40 275.28 238.43 279.04 244.63 282.41 C 246.90 283.34 247.42 285.77 247.87 287.93 C 241.01 285.19 234.71 281.24 228.28 277.66 C 226.20 276.81 226.35 274.38 225.86 272.56 Z" />
<path fill="#ffffff" opacity="1.00" d=" M 373.27 360.14 C 377.18 358.19 383.92 359.57 383.66 364.96 C 384.21 369.62 379.03 371.98 375.11 370.85 C 370.02 370.33 369.01 362.42 373.27 360.14 Z" />
<path fill="#ffffff" opacity="1.00" d=" M 71.50 363.00 C 85.04 363.00 98.58 363.00 112.13 363.00 C 112.12 366.37 112.12 369.75 112.13 373.13 C 107.37 373.12 102.62 373.12 97.87 373.13 C 97.87 388.75 97.87 404.37 97.87 420.00 C 93.83 420.00 89.79 420.00 85.75 420.00 C 85.75 404.37 85.75 388.75 85.75 373.12 C 81.00 373.13 76.25 373.12 71.50 373.13 C 71.50 369.75 71.50 366.37 71.50 363.00 Z" />
<path fill="#ffffff" opacity="1.00" d=" M 446.32 376.37 C 447.47 373.28 448.63 370.21 449.78 367.12 C 452.30 367.12 454.84 367.12 457.37 367.13 C 457.37 370.21 457.37 373.29 457.37 376.38 C 460.91 376.37 464.46 376.37 468.00 376.38 C 468.00 379.37 468.00 382.37 468.00 385.37 C 464.45 385.37 460.91 385.37 457.37 385.37 C 457.41 392.55 457.30 399.72 457.41 406.90 C 457.36 408.65 458.35 410.45 460.08 411.04 C 462.92 411.75 465.78 410.73 468.53 410.04 C 468.49 413.01 468.50 415.97 468.46 418.94 C 463.28 420.86 457.39 421.59 452.12 419.60 C 447.59 417.75 445.57 412.58 445.52 407.98 C 445.46 400.44 445.53 392.91 445.50 385.37 C 443.58 385.37 441.66 385.37 439.75 385.37 C 439.74 383.69 439.74 382.02 439.74 380.35 C 441.93 379.01 444.12 377.69 446.32 376.37 Z" />
<path fill="#ffffff" opacity="1.00" d=" M 113.70 376.38 C 118.05 376.38 122.40 376.37 126.75 376.38 C 129.51 387.54 134.12 398.34 135.19 409.85 C 136.72 398.40 140.94 387.54 143.72 376.38 C 148.10 376.37 152.47 376.38 156.84 376.37 C 151.11 392.74 145.35 409.10 139.61 425.46 C 137.94 430.23 135.18 435.06 130.49 437.39 C 126.20 439.66 121.16 439.30 116.53 438.62 C 116.49 435.49 116.52 432.35 116.46 429.22 C 119.47 429.45 122.78 430.17 125.52 428.50 C 128.37 426.79 129.16 423.31 130.21 420.40 C 124.71 405.73 119.21 391.05 113.70 376.38 Z" />
<path fill="#ffffff" opacity="1.00" d=" M 163.13 376.38 C 166.32 376.37 169.53 376.37 172.73 376.38 C 173.32 378.38 173.92 380.38 174.52 382.39 C 176.17 380.45 177.71 378.28 180.04 377.10 C 185.63 374.12 193.37 375.64 197.00 380.97 C 201.82 387.93 202.00 397.01 200.91 405.11 C 199.96 411.57 196.40 418.71 189.53 420.35 C 183.84 421.98 177.88 419.40 174.38 414.82 C 175.45 422.88 174.84 431.02 175.00 439.13 C 171.04 439.12 167.08 439.12 163.13 439.13 C 163.13 418.21 163.13 397.29 163.13 376.38 M 179.41 385.62 C 176.18 386.93 175.42 390.77 175.15 393.86 C 174.91 398.42 174.62 403.28 176.47 407.58 C 178.07 411.64 184.49 412.52 186.97 408.85 C 188.89 405.97 189.12 402.35 189.26 398.99 C 189.27 395.19 189.23 391.11 187.26 387.74 C 185.70 385.07 182.10 384.50 179.41 385.62 Z" />
<path fill="#ffffff" opacity="1.00" d=" M 217.83 378.80 C 226.11 373.49 239.18 374.49 244.88 383.13 C 248.45 388.42 248.07 395.04 248.00 401.13 C 239.08 401.17 230.16 401.03 221.25 401.20 C 221.65 405.27 223.33 409.83 227.57 411.26 C 233.59 412.96 240.00 411.18 245.51 408.60 C 245.49 411.68 245.51 414.77 245.46 417.85 C 238.09 421.17 229.39 421.82 221.70 419.23 C 214.84 416.86 210.37 410.03 209.68 402.98 C 208.63 394.39 210.20 384.06 217.83 378.80 M 223.67 386.77 C 222.20 388.60 222.01 391.03 221.52 393.24 C 226.69 393.25 231.87 393.26 237.05 393.23 C 236.55 390.86 236.36 388.21 234.65 386.34 C 231.90 383.13 226.18 383.34 223.67 386.77 Z" />
<path fill="#ffffff" opacity="1.00" d=" M 261.70 377.74 C 269.64 374.00 279.05 375.52 286.77 379.11 C 285.57 381.93 284.36 384.75 283.17 387.57 C 279.06 385.83 274.65 383.74 270.07 384.61 C 267.35 384.82 266.55 388.82 268.84 390.19 C 273.62 393.60 279.85 394.66 284.14 398.85 C 289.82 404.69 287.47 416.00 279.74 418.89 C 272.12 421.90 263.33 421.20 255.76 418.33 C 255.74 415.04 255.75 411.75 255.74 408.47 C 260.85 410.64 266.44 412.73 272.08 411.84 C 274.95 411.60 276.79 407.71 274.41 405.71 C 270.16 402.27 264.53 401.18 260.21 397.83 C 253.69 393.11 254.11 381.23 261.70 377.74 Z" />
<path fill="#ffffff" opacity="1.00" d=" M 305.76 376.93 C 312.93 374.58 320.86 375.47 327.65 378.63 C 326.54 381.66 325.38 384.67 324.24 387.70 C 320.10 386.16 315.35 384.01 310.98 386.00 C 306.64 388.65 306.54 394.45 306.48 398.97 C 306.60 403.11 307.02 408.55 311.32 410.54 C 316.40 412.24 321.73 410.09 326.40 408.09 C 326.36 411.40 326.37 414.71 326.37 418.03 C 319.33 421.50 310.60 421.86 303.54 418.29 C 297.94 415.37 295.14 409.07 294.55 403.04 C 294.04 396.94 294.18 390.49 296.87 384.86 C 298.59 381.15 301.85 378.18 305.76 376.93 Z" />
<path fill="#ffffff" opacity="1.00" d=" M 336.50 376.38 C 339.49 376.37 342.48 376.37 345.48 376.38 C 346.10 378.71 346.71 381.04 347.32 383.38 C 349.17 380.95 350.83 378.11 353.71 376.78 C 356.58 375.31 359.89 375.57 362.99 375.83 C 363.00 379.54 363.00 383.26 363.00 386.98 C 359.47 386.68 355.58 386.31 352.44 388.29 C 349.46 390.11 348.45 393.80 348.39 397.09 C 348.33 404.72 348.39 412.36 348.37 420.00 C 344.41 420.00 340.46 420.00 336.50 420.00 C 336.50 405.46 336.50 390.92 336.50 376.38 Z" />
<path fill="#ffffff" opacity="1.00" d=" M 371.13 376.38 C 375.12 376.37 379.12 376.37 383.13 376.38 C 383.12 390.92 383.13 405.46 383.13 420.00 C 379.12 420.00 375.12 420.00 371.13 420.00 C 371.12 405.46 371.13 390.92 371.13 376.38 Z" />
<path fill="#ffffff" opacity="1.00" d=" M 395.63 376.38 C 398.82 376.37 402.02 376.37 405.22 376.37 C 405.82 378.38 406.43 380.39 407.04 382.40 C 408.58 380.52 410.05 378.45 412.24 377.27 C 417.95 373.98 426.05 375.63 429.69 381.24 C 434.38 388.33 434.51 397.43 433.34 405.57 C 432.31 412.18 428.28 419.44 421.09 420.55 C 415.59 421.79 410.20 419.04 406.86 414.78 C 407.95 422.85 407.34 431.01 407.50 439.13 C 403.54 439.12 399.58 439.12 395.63 439.13 C 395.63 418.21 395.63 397.29 395.63 376.38 M 411.52 385.79 C 408.21 387.52 407.81 391.72 407.55 395.03 C 407.45 399.31 407.21 403.89 409.11 407.86 C 410.91 411.81 417.37 412.42 419.63 408.61 C 421.69 405.12 421.77 400.89 421.76 396.95 C 421.64 393.71 421.40 390.24 419.56 387.45 C 417.84 384.86 414.15 384.54 411.52 385.79 Z" />
</svg>
